Coordinates
version=1
nRows=32
nColumns=22
inDegrees=yes

Units are S.I. units (second, meters, Newtons, ...)
If the header above contains a line with 'inDegrees', this indicates whether rotational values are in degrees (yes) or radians (no).

endheader
time	pelvis_tilt	pelvis_list	pelvis_rotation	pelvis_tx	pelvis_ty	pelvis_tz	hip_flexion_r	hip_adduction_r	hip_rotation_r	knee_angle_r	ankle_angle_r	subtalar_angle_r	hip_flexion_l	hip_adduction_l	hip_rotation_l	knee_angle_l	ankle_angle_l	subtalar_angle_l	lumbar_extension	lumbar_bending	lumbar_rotation
      1.87000000	      2.88770629	     -0.79636393	     29.30079301	      0.46173186	      0.92351926	      0.80190273	     23.19178705	     -3.74189475	      5.11247441	    -58.20165036	     -4.15701732	      9.14523681	      3.23530540	      5.43499110	    -14.84807737	    -17.60969442	      9.95213927	    -12.78705493	     -8.51528348	     -2.76157165	     -1.16192919
      1.88000000	      2.84830050	     -0.70507879	     30.71494668	      0.46688014	      0.92337750	      0.79546379	     23.73853602	     -3.89877272	      4.85000635	    -56.07184773	     -3.60476053	      8.98049630	      2.46025815	      5.73224290	    -13.52862338	    -17.16064855	     10.10941121	    -12.70806374	     -8.52312512	     -2.77073710	     -1.71881245
      1.89000000	      2.83767248	     -0.60681162	     32.12775667	      0.47206835	      0.92323293	      0.78897523	     24.13573336	     -4.06268882	      4.52972554	    -53.71748013	     -3.22357084	      8.75326668	      1.62792868	      5.98320476	    -12.19857778	    -16.69775228	     10.26206812	    -12.58722847	     -8.55926058	     -2.77155572	     -2.26499931
      1.90000000	      2.90092627	     -0.48847374	     33.50181119	      0.47737698	      0.92315755	      0.78248510	     24.32668309	     -4.19092174	      4.18155043	    -51.12951127	     -2.94868363	      8.38673319	      0.68173544	      6.16403932	    -10.91534510	    -16.20625588	     10.41195190	    -12.36856336	     -8.66950552	     -2.75713674	     -2.75021537
      1.91000000	      2.80637762	     -0.41048769	     34.89474738	      0.48264225	      0.92272929	      0.77598345	     24.61084851	     -4.38864627	      3.79140698	    -48.40719999	     -2.81782067	      8.32855551	     -0.06939176	      6.35977434	     -9.59926995	    -15.79164056	     10.62781040	    -12.19813012	     -8.60185161	     -2.80879883	     -3.29415962
      1.92000000	      2.83939378	     -0.30426590	     36.23786567	      0.48808978	      0.92244454	      0.76949123	     24.62214821	     -4.50559742	      3.38811460	    -45.44414508	     -2.74302555	      8.19320529	     -0.98802362	      6.45749551	     -8.33925815	    -15.34482411	     10.83004425	    -11.88735863	     -8.66041918	     -2.82468729	     -3.76737912
      1.93000000	      2.72178497	     -0.24953852	     37.58630765	      0.49352613	      0.92180613	      0.76298963	     24.73127281	     -4.67729905	      2.94921015	    -42.36625758	     -2.82163299	      8.23121552	     -1.71404526	      6.56760270	     -7.06296828	    -14.96902036	     11.09896811	    -11.65464981	     -8.53990414	     -2.90234886	     -4.27668811
      1.94000000	      2.70954721	     -0.16617506	     38.86937309	      0.49914422	      0.92124844	      0.75650094	     24.60114719	     -4.76257902	      2.55103268	    -39.07900110	     -2.89788854	      8.33873618	     -2.57014673	      6.59584854	     -5.84811429	    -14.58531028	     11.35703937	    -11.28450668	     -8.52508351	     -2.95312739	     -4.70210849
      1.95000000	      2.61621579	     -0.11955886	     40.13034050	      0.50485192	      0.92044632	      0.75002320	     24.48719228	     -4.85659130	      2.14988991	    -35.67473842	     -3.07987466	      8.59399115	     -3.32001087	      6.61140772	     -4.65040750	    -14.24433857	     11.66096179	    -10.95082269	     -8.40066061	     -3.04639170	     -5.13430287
      1.96000000	      2.50586405	     -0.08298256	     41.35710595	      0.51065453	      0.91950079	      0.74355470	     24.30531619	     -4.93278005	      1.78183923	    -32.14629410	     -3.30259021	      9.01694663	     -4.03222004	      6.59950968	     -3.47935213	    -13.95380518	     11.98125769	    -10.61422067	     -8.25258017	     -3.15946414	     -5.53270373
      1.97000000	      2.36692748	     -0.05689680	     42.54959877	      0.51656533	      0.91838708	      0.73708141	     24.07577485	     -5.00668002	      1.43602676	    -28.52648920	     -3.55303225	      9.60939674	     -4.69896513	      6.57152122	     -2.35149514	    -13.71115381	     12.32452939	    -10.29419964	     -8.06817048	     -3.30232643	     -5.92237202
      1.98000000	      2.20903738	     -0.02261836	     43.69807280	      0.52258512	      0.91712904	      0.73060637	     23.78611490	     -5.08517085	      1.13373389	    -24.84802897	     -3.84999665	     10.41643545	     -5.34519603	      6.54195967	     -1.25938698	    -13.50704224	     12.67610364	     -9.97512237	     -7.87591013	     -3.48319138	     -6.25589501
      1.99000000	      2.02503118	      0.01674099	     44.82126186	      0.52870322	      0.91570591	      0.72408613	     23.45818632	     -5.18800354	      0.83029751	    -21.17222872	     -4.14166125	     11.38724454	     -5.96417429	      6.51437536	     -0.20931414	    -13.34382216	     13.04401745	     -9.69112918	     -7.66693121	     -3.69953149	     -6.58684973
      2.00000000	      1.81775196	      0.08214375	     45.91072050	      0.53491596	      0.91413883	      0.71752485	     23.09842234	     -5.32770809	      0.52352065	    -17.57011992	     -4.45527009	     12.52822408	     -6.57411598	      6.50708726	      0.78754136	    -13.22205214	     13.41705383	     -9.43453725	     -7.46604781	     -3.96668677	     -6.90133884
      2.01000000	      1.59514023	      0.16176566	     47.01036278	      0.54117484	      0.91242577	      0.71087611	     22.73567211	     -5.51026236	      0.12074366	    -14.14884972	     -4.73824497	     13.70040789	     -7.16198190	      6.50134070	      1.75048098	    -13.16461371	     13.79594045	     -9.22945558	     -7.27606059	     -4.26118562	     -7.24485004
      2.02000000	      1.36941905	      0.29466978	     48.02277994	      0.54757588	      0.91063557	      0.70423357	     22.37361537	     -5.70806253	     -0.22033622	    -10.99233432	     -5.03491574	     15.07655913	     -7.80540629	      6.53153854	      2.65097619	    -13.09942765	     14.18201490	     -9.03630977	     -7.13972684	     -4.61483493	     -7.47920031
      2.03000000	      1.15340931	      0.42344153	     49.06276283	      0.55397776	      0.90875568	      0.69749033	     22.06543365	     -5.91744534	     -0.71165551	     -8.22687606	     -5.24727092	     16.32232377	     -8.42538491	      6.53159348	      3.51215650	    -13.10608658	     14.54771898	     -8.89854299	     -7.02693727	     -4.95053190	     -7.76796605
      2.04000000	      0.95661170	      0.58821623	     50.03446386	      0.56047512	      0.90685785	      0.69075170	     21.81371631	     -6.11645997	     -1.14591642	     -5.93071822	     -5.41570365	     17.56354232	     -9.09101067	      6.53519677	      4.27570334	    -13.12297887	     14.93757073	     -8.78439526	     -6.97796387	     -5.30220913	     -8.01248716
      2.05000000	      0.79911416	      0.75917247	     50.97047905	      0.56701110	      0.90497346	      0.68400780	     21.64137006	     -6.28347372	     -1.55072729	     -4.17610564	     -5.49345344	     18.66219482	     -9.76859289	      6.50228457	      4.96223302	    -13.19241895	     15.32651577	     -8.69993611	     -6.98797991	     -5.62164523	     -8.21371616
      2.06000000	      0.69300726	      0.92143059	     51.87047796	      0.57356764	      0.90313783	      0.67725246	     21.55797669	     -6.40219992	     -1.88944965	     -2.99962713	     -5.47946063	     19.53900270	    -10.45259637	      6.41625174	      5.57659309	    -13.30991352	     15.70317394	     -8.63907409	     -7.05074736	     -5.88134432	     -8.38018805
      2.07000000	      0.64721463	      1.08499923	     52.70730635	      0.58019013	      0.90139262	      0.67049925	     21.54847083	     -6.46460697	     -2.06329225	     -2.40317529	     -5.37851195	     20.20353930	    -11.16911096	      6.27797839	      6.06957338	    -13.44727828	     16.09391522	     -8.59216928	     -7.17447925	     -6.08061076	     -8.51887736
      2.08000000	      0.64184121	      1.20182017	     53.51755428	      0.58682501	      0.89969194	      0.66371541	     21.67157708	     -6.46997390	     -2.12084716	     -2.40806426	     -5.16495688	     20.49102290	    -11.84362613	      6.07304749	      6.51257596	    -13.64187452	     16.45901662	     -8.55562214	     -7.29745949	     -6.19662875	     -8.63096177
      2.09000000	      0.71606822	      1.31462283	     54.26105508	      0.59357079	      0.89813521	      0.65688859	     21.81763390	     -6.39506711	     -1.92176791	     -2.89830592	     -4.90005041	     20.60458850	    -12.55342737	      5.79803734	      6.83243926	    -13.86515527	     16.78714079	     -8.51935221	     -7.47078038	     -6.22692181	     -8.68810869
      2.10000000	      0.83704284	      1.39912878	     54.95739404	      0.60042169	      0.89667610	      0.65000608	     22.02879217	     -6.24882545	     -1.50670376	     -3.84811649	     -4.63536028	     20.50006586	    -13.25338136	      5.46370563	      7.08343522	    -14.12110603	     17.08900568	     -8.47952761	     -7.64519979	     -6.18550008	     -8.70946814
      2.11000000	      1.02629584	      1.47623660	     55.62580135	      0.60741725	      0.89538054	      0.64300198	     22.24404416	     -6.01739744	     -0.95766385	     -5.17683286	     -4.37403469	     19.95678487	    -13.98773957	      5.05455017	      7.26116608	    -14.38510389	     17.29796802	     -8.39266003	     -7.84021190	     -6.06311092	     -8.74700016
      2.12000000	      1.22170772	      1.48889510	     56.24408029	      0.61459285	      0.89411318	      0.63592131	     22.53726501	     -5.70055501	     -0.20904578	     -6.79236166	     -4.16226663	     19.25930421	    -14.63052749	      4.60114567	      7.37188990	    -14.73405466	     17.46294325	     -8.29983820	     -7.95447553	     -5.89238504	     -8.70555833
      2.13000000	      1.43996956	      1.45726347	     56.83830164	      0.62196108	      0.89293672	      0.62869390	     22.84589170	     -5.29825351	      0.63174997	     -8.59573357	     -4.01228934	     18.40118940	    -15.21513719	      4.09486884	      7.43253356	    -15.15875900	     17.53563666	     -8.18805546	     -8.00779212	     -5.66928237	     -8.63760902
      2.14000000	      1.67024430	      1.37940468	     57.41935420	      0.62951919	      0.89186015	      0.62130207	     23.16544449	     -4.82129560	      1.46034483	    -10.51527998	     -3.96966696	     17.40332443	    -15.72575596	      3.54452793	      7.48013712	    -15.67097940	     17.49991156	     -8.05624952	     -7.98929279	     -5.40591709	     -8.53470264
      2.15000000	      1.90470318	      1.25689655	     57.99064526	      0.63727343	      0.89089438	      0.61371594	     23.47878406	     -4.28546468	      2.23069042	    -12.47324073	     -3.99582257	     16.34921169	    -16.14072779	      2.95965445	      7.48365773	    -16.30369938	     17.33208649	     -7.91871307	     -7.88766042	     -5.11289883	     -8.41538465
      2.16000000	      2.13689333	      1.09294002	     58.56168091	      0.64515822	      0.89004522	      0.60590901	     23.77983350	     -3.71744409	      2.87802173	    -14.41735298	     -4.08152109	     15.27975590	    -16.43855699	      2.35515135	      7.46304704	    -17.09159474	     17.01795163	     -7.78309809	     -7.70204463	     -4.78857580	     -8.27914607
      2.17000000	      2.36538670	      0.89181728	     59.13967076	      0.65315594	      0.88933941	      0.59788682	     24.06149124	     -3.13893426	      3.33666809	    -16.31254597	     -4.19467030	     14.23771371	    -16.59664814	      1.73740655	      7.42093507	    -18.07463426	     16.52449565	     -7.65768359	     -7.43918765	     -4.44614028	     -8.11583120
      2.18000000	      2.58918531	      0.66099166	     59.72991836	      0.66118225	      0.88879057	      0.58963053	     24.30965701	     -2.57665406	      3.60394335	    -18.12048736	     -4.31194763	     13.27843096	    -16.60113996	      1.11914746	      7.34900096	    -19.27799256	     15.85050850	     -7.55298082	     -7.10623750	     -4.07775405	     -7.95091687
